<svg xmlns="http://www.w3.org/2000/svg" width="1280" height="420" viewBox="0 0 1280 420" role="img">
  <title>Recreate</title>
  <desc>Capture the interface, keep the details.</desc>
  <defs>
    <linearGradient id="bg" x1="0" y1="0" x2="1" y2="1">
      <stop offset="0" stop-color="#11131B"/>
      <stop offset="0.55" stop-color="#171A28"/>
      <stop offset="1" stop-color="#21182E"/>
    </linearGradient>
    <linearGradient id="accent" x1="0" y1="0" x2="1" y2="1">
      <stop offset="0" stop-color="#7180FF"/>
      <stop offset="1" stop-color="#A977FF"/>
    </linearGradient>
    <filter id="shadow" x="-20%" y="-20%" width="140%" height="160%">
      <feDropShadow dx="0" dy="18" stdDeviation="24" flood-color="#000000" flood-opacity=".34"/>
    </filter>
    <style>
      .wordmark { font: 700 78px Inter, ui-sans-serif, system-ui, sans-serif; letter-spacing: -4px; }
      .tagline { font: 500 24px Inter, ui-sans-serif, system-ui, sans-serif; letter-spacing: -.4px; }
    </style>
  </defs>
  <rect width="1280" height="420" rx="32" fill="url(#bg)"/>
  <circle cx="1120" cy="58" r="170" fill="#51407A" opacity=".18"/>
  <circle cx="88" cy="390" r="190" fill="#39458E" opacity=".14"/>
  <g transform="translate(96 124)">
    <rect width="64" height="64" rx="18" fill="url(#accent)"/>
    <path d="M18 20h28v8H26v18h-8V20Zm28 26H32v-8h6V32h8v14Z" fill="#FFF"/>
    <text x="84" y="55" class="wordmark" fill="#F7F8FF">Recreate</text>
    <text x="3" y="108" class="tagline" fill="#B7BED4">Capture the interface. Keep the details.</text>
  </g>
  <g transform="translate(792 62)" filter="url(#shadow)">
    <rect width="390" height="296" rx="24" fill="#202432" stroke="#353B52"/>
    <rect width="390" height="48" rx="24" fill="#090B11"/>
    <circle cx="24" cy="24" r="5" fill="#FF6B6B"/>
    <circle cx="42" cy="24" r="5" fill="#FFD166"/>
    <circle cx="60" cy="24" r="5" fill="#6DD8A8"/>
    <rect x="24" y="76" width="158" height="16" rx="8" fill="#F0F2FF"/>
    <rect x="24" y="104" width="286" height="8" rx="4" fill="#444B63"/>
    <rect x="24" y="120" width="238" height="8" rx="4" fill="#363C51"/>
    <rect x="24" y="154" width="164" height="112" rx="16" fill="url(#accent)"/>
    <rect x="204" y="154" width="162" height="48" rx="14" fill="#30364A"/>
    <rect x="204" y="218" width="76" height="48" rx="14" fill="#3A4159"/>
    <rect x="290" y="218" width="76" height="48" rx="14" fill="#382C4D"/>
  </g>
</svg>
