<svg xmlns="http://www.w3.org/2000/svg" width="1280" height="420" viewBox="0 0 1280 420" role="img">
  <title>Recreate</title>
  <desc>Capture the interface, keep the details.</desc>
  <defs>
    <linearGradient id="bg" x1="0" y1="0" x2="1" y2="1">
      <stop offset="0" stop-color="#F8F9FF"/>
      <stop offset="0.55" stop-color="#EEF0FF"/>
      <stop offset="1" stop-color="#F7F1FF"/>
    </linearGradient>
    <linearGradient id="accent" x1="0" y1="0" x2="1" y2="1">
      <stop offset="0" stop-color="#5265FF"/>
      <stop offset="1" stop-color="#8B5CF6"/>
    </linearGradient>
    <filter id="shadow" x="-20%" y="-20%" width="140%" height="160%">
      <feDropShadow dx="0" dy="18" stdDeviation="24" flood-color="#5361B4" flood-opacity=".16"/>
    </filter>
    <style>
      .wordmark { font: 700 78px Inter, ui-sans-serif, system-ui, sans-serif; letter-spacing: -4px; }
      .tagline { font: 500 24px Inter, ui-sans-serif, system-ui, sans-serif; letter-spacing: -.4px; }
    </style>
  </defs>
  <rect width="1280" height="420" rx="32" fill="url(#bg)"/>
  <circle cx="1120" cy="58" r="170" fill="#FFFFFF" opacity=".55"/>
  <circle cx="88" cy="390" r="190" fill="#FFFFFF" opacity=".5"/>
  <g transform="translate(96 124)">
    <rect width="64" height="64" rx="18" fill="url(#accent)"/>
    <path d="M18 20h28v8H26v18h-8V20Zm28 26H32v-8h6V32h8v14Z" fill="#FFF"/>
    <text x="84" y="55" class="wordmark" fill="#171A24">Recreate</text>
    <text x="3" y="108" class="tagline" fill="#51586D">Capture the interface. Keep the details.</text>
  </g>
  <g transform="translate(792 62)" filter="url(#shadow)">
    <rect width="390" height="296" rx="24" fill="#FFFFFF" stroke="#DDE1F4"/>
    <rect width="390" height="48" rx="24" fill="#171A24"/>
    <circle cx="24" cy="24" r="5" fill="#FF6B6B"/>
    <circle cx="42" cy="24" r="5" fill="#FFD166"/>
    <circle cx="60" cy="24" r="5" fill="#6DD8A8"/>
    <rect x="24" y="76" width="158" height="16" rx="8" fill="#242938"/>
    <rect x="24" y="104" width="286" height="8" rx="4" fill="#DDE1F0"/>
    <rect x="24" y="120" width="238" height="8" rx="4" fill="#E7E9F5"/>
    <rect x="24" y="154" width="164" height="112" rx="16" fill="url(#accent)"/>
    <rect x="204" y="154" width="162" height="48" rx="14" fill="#F0F2FC"/>
    <rect x="204" y="218" width="76" height="48" rx="14" fill="#E3E6F6"/>
    <rect x="290" y="218" width="76" height="48" rx="14" fill="#F1EAFE"/>
  </g>
</svg>
